<?xml version="1.0" encoding="utf-8"?>
<!-- Generator: Adobe Illustrator 24.1.1, SVG Export Plug-In . SVG Version: 6.00 Build 0)  -->
<svg version="1.1" id="Layer_1" xmlns="http://www.w3.org/2000/svg" xmlns:xlink="http://www.w3.org/1999/xlink" x="0px" y="0px"
	 viewBox="0 0 38 38" enable-background="new 0 0 38 38" xml:space="preserve">
<g id="XMLID_91_">
	<g id="white_rect_147_">
		<path id="XMLID_139_" fill="#26409E" d="M38,33.4c0,2.5-2.1,4.6-4.6,4.6H4.6C2.1,38,0,35.9,0,33.4V4.6C0,2.1,2.1,0,4.6,0h28.8
			C35.9,0,38,2.1,38,4.6V33.4z"/>
	</g>
	<g id="XMLID_4583_">
		<g id="XMLID_191_">
			<g id="XMLID_215_">
				<path id="XMLID_218_" fill="#1A3275" d="M10.4,26H9v-3h1.9l0.6-3H9v-2h3l0.8-4h2.4l-0.8,4h2.3l0.8-4H20l-0.8,4H21v2h-2.3l-0.6,3
					h3v3h-3.4l-0.8,4h-2.4l0.8-4h-2.4l-0.8,4H9.7L10.4,26z M13.9,20l-0.6,3h2.4l0.6-3H13.9z"/>
				<path id="XMLID_216_" fill="#1A3275" d="M29,29h-3V17.9c-1,1-2,1.8-3,2.3v-2.7c0-0.3,1.4-0.5,2.3-1.2c0.9-0.7,1.3-1.2,1.7-2.2h2
					V29z"/>
			</g>
		</g>
	</g>
	<g id="XMLID_4335_">
		<path id="XMLID_4363_" fill="#FFFFFF" d="M10.4,24H9v-3h1.9l0.6-3H9v-2h3l0.8-4h2.4l-0.8,4h2.3l0.8-4H20l-0.8,4H21v2h-2.3l-0.6,3
			h3v3h-3.4l-0.8,4h-2.4l0.8-4h-2.4l-0.8,4H9.7L10.4,24z M13.9,18l-0.6,3h2.4l0.6-3H13.9z"/>
		<path id="XMLID_4337_" fill="#FFFFFF" d="M29,27h-3V15.9c-1,1-2,1.8-3,2.3v-2.7c0-0.3,1.4-0.5,2.3-1.2s1.3-1.2,1.7-2.2h2V27z"/>
	</g>
</g>
</svg>
