<svg id="Layer_1" data-name="Layer 1" xmlns="http://www.w3.org/2000/svg" viewBox="0 0 38 38.02">
  <path d="M4.65,0h28.7A4.65,4.65,0,0,1,38,4.53v28.9A4.65,4.65,0,0,1,33.35,38H4.65A4.65,4.65,0,0,1,0,33.43V4.53A4.65,4.65,0,0,1,4.65,0Z" transform="translate(0 0.02)" style="fill: #0e7687"/>
  <rect x="11.52" width="13.54" height="38" style="fill: #333d47"/>
  <rect x="12.84" width="1.31" height="38" style="fill: #ff0"/>
  <rect x="22.34" width="1.31" height="38" style="fill: #ff0"/>
  <line x1="18.19" y1="0.19" x2="18.19" y2="37.92" style="fill: none;stroke: #fff;stroke-miterlimit: 10;stroke-dasharray: 3"/>
  <polyline points="8.94 37.5 4.65 27.71 3.23 19.8 10.01 11.78 5.96 6.54 7.21 0.22" style="fill: none;stroke: #fff;stroke-linejoin: round"/>
  <polyline points="30.91 0.28 34.46 9.11 29.01 15.75 31.73 22.37 29.71 27.02 34.24 37.79" style="fill: none;stroke: #fff;stroke-linejoin: round"/>
  <polyline points="8.01 0.35 3.23 10.5 7.48 23.66 3.59 37.73" style="fill: none;stroke: #2dd6c9;stroke-linejoin: round"/>
  <polyline points="8.36 0.32 6.47 11.78 9.5 21.68 6.37 37.69" style="fill: none;stroke: #23b7af;stroke-linejoin: round;stroke-dasharray: 2"/>
  <polyline points="30.91 0.28 29.79 6.85 33.37 15.02 30.23 37.95" style="fill: none;stroke: #23b7af;stroke-linejoin: round;stroke-dasharray: 2"/>
  <polyline points="28.12 37.76 34.46 19.8 27.69 9.11 28.6 0.06" style="fill: none;stroke: #2dd6c9;stroke-linejoin: round"/>
</svg>
