<?xml version="1.0" encoding="utf-8"?>
<!-- Generator: Adobe Illustrator 24.1.1, SVG Export Plug-In . SVG Version: 6.00 Build 0)  -->
<svg version="1.1" id="Layer_1" xmlns="http://www.w3.org/2000/svg" xmlns:xlink="http://www.w3.org/1999/xlink" x="0px" y="0px"
	 viewBox="0 0 38 38" enable-background="new 0 0 38 38" xml:space="preserve">
<g id="XMLID_84_">
	<g id="white_rect_146_">
		<path id="XMLID_131_" fill="#755191" d="M38,33.4c0,2.5-2.1,4.6-4.6,4.6H4.6C2.1,38,0,35.9,0,33.4V4.6C0,2.1,2.1,0,4.6,0h28.8
			C35.9,0,38,2.1,38,4.6V33.4z"/>
	</g>
	<g id="XMLID_4521_">
		<path id="XMLID_4576_" fill="#FFFFFF" d="M30,14.9c0,1.1-0.9,2-2,2H9c-1.1,0-2-0.9-2-2V6.8c1.8,0,17.7,0,23,0V14.9z"/>
		<path id="XMLID_4526_" fill="#333D47" d="M7,8.7v-3c0-1.1,0.9-2,2-2h18.9c1.2,0,2.1,0.9,2.1,2.1v2.9H7z"/>
		<line id="XMLID_4525_" fill="none" stroke="#FFFFFF" stroke-miterlimit="10" x1="9" y1="6.5" x2="16" y2="6.5"/>
		<line id="XMLID_4524_" fill="none" stroke="#FFFFFF" stroke-miterlimit="10" x1="26" y1="6.5" x2="29" y2="6.5"/>
		<line id="XMLID_4523_" fill="none" stroke="#333D47" stroke-miterlimit="10" x1="10" y1="11.5" x2="27" y2="11.5"/>
		<line id="XMLID_4522_" fill="none" stroke="#333D47" stroke-miterlimit="10" x1="10" y1="14.5" x2="27" y2="14.5"/>
	</g>
	<g id="XMLID_4366_">
		<path id="XMLID_4519_" fill="#FFFFFF" d="M30,31c0,1.1-0.9,2-2,2H9c-1.1,0-2-0.9-2-2v-8.4c2.3,0,19.7,0,23,0V31z"/>
		<path id="XMLID_4517_" fill="#333D47" d="M7,23.5v-2.9c0-0.9,0.8-1.7,1.7-1.7h19.4c1,0,1.8,0.8,1.8,1.8v2.7H7V23.5z"/>
		<line id="XMLID_4510_" fill="none" stroke="#FFFFFF" stroke-miterlimit="10" x1="9" y1="21.5" x2="16" y2="21.5"/>
		<line id="XMLID_4444_" fill="none" stroke="#FFFFFF" stroke-miterlimit="10" x1="26" y1="21.5" x2="29" y2="21.5"/>
		<path id="XMLID_4424_" fill="#C174D1" d="M16,30c0,0.6-0.4,1-1,1h-5c-0.6,0-1-0.4-1-1v-3c0-0.6,0.4-1,1-1h5c0.6,0,1,0.4,1,1V30z"
			/>
		<path id="XMLID_4422_" fill="#9483A5" d="M27,30c0,0.6-0.4,1-1,1h-5c-0.6,0-1-0.4-1-1v-3c0-0.6,0.4-1,1-1h5c0.6,0,1,0.4,1,1V30z"
			/>
		<line id="XMLID_4391_" fill="none" stroke="#FFFFFF" stroke-miterlimit="10" x1="11" y1="28.5" x2="14" y2="28.5"/>
		<line id="XMLID_4388_" fill="none" stroke="#FFFFFF" stroke-miterlimit="10" x1="22" y1="28.5" x2="25" y2="28.5"/>
	</g>
</g>
</svg>
