<?xml version="1.0" encoding="utf-8"?>
<!-- Generator: Adobe Illustrator 24.1.1, SVG Export Plug-In . SVG Version: 6.00 Build 0)  -->
<svg version="1.1" id="Layer_1" xmlns="http://www.w3.org/2000/svg" xmlns:xlink="http://www.w3.org/1999/xlink" x="0px" y="0px"
	 viewBox="0 0 38 38" enable-background="new 0 0 38 38" xml:space="preserve">
<g id="white_rect_148_">
	<path id="XMLID_131_" fill="#46B28E" d="M38,33.4c0,2.5-2.1,4.6-4.6,4.6H4.6C2.1,38,0,35.9,0,33.4V4.6C0,2.1,2.1,0,4.6,0h28.8
		C35.9,0,38,2.1,38,4.6V33.4z"/>
</g>
<g id="XMLID_4608_">
	<g id="XMLID_4631_">
		<g id="XMLID_144_">
			<path id="XMLID_155_" fill="#44997A" d="M18.3,37c-5.8,0-10.4-4.7-10.4-10.4s4.7-10.4,10.4-10.4c5.8,0,10.4,4.7,10.4,10.4
				S24.1,37,18.3,37z"/>
		</g>
	</g>
	<g id="XMLID_4629_">
		<path id="XMLID_137_" fill="#FFFFFF" d="M18.3,35c-5.8,0-10.4-4.7-10.4-10.4s4.7-10.4,10.4-10.4c5.8,0,10.4,4.7,10.4,10.4
			S24.1,35,18.3,35z"/>
	</g>
	<polygon id="XMLID_4610_" fill="#ADC9C3" points="23,22 23,4 14,4 14,22 9,20 9,22 18.5,31.4 28,22 28,20 	"/>
	<polygon id="XMLID_4609_" fill="#333D47" points="23,20 23,4 14,4 14,20 8.8,20 18.3,29.4 27.7,20 	"/>
</g>
</svg>
