<?xml version="1.0" encoding="utf-8"?>
<!-- Generator: Adobe Illustrator 24.1.1, SVG Export Plug-In . SVG Version: 6.00 Build 0)  -->
<svg version="1.1" id="Layer_1" xmlns="http://www.w3.org/2000/svg" xmlns:xlink="http://www.w3.org/1999/xlink" x="0px" y="0px"
	 viewBox="0 0 38 38" enable-background="new 0 0 38 38" xml:space="preserve">
<g id="XMLID_84_">
	<g id="white_rect_130_">
		<path id="XMLID_148_" fill="#15529B" d="M38,33.4c0,2.5-2.1,4.6-4.6,4.6H4.6C2.1,38,0,35.9,0,33.4V4.6C0,2.1,2.1,0,4.6,0h28.8
			C35.9,0,38,2.1,38,4.6V33.4z"/>
	</g>
	<g id="XMLID_3768_">
		<g id="XMLID_3774_">
			<g id="XMLID_144_">
				<rect id="XMLID_175_" x="7" y="7" fill="#295786" width="25" height="3"/>
			</g>
		</g>
		<g id="XMLID_3773_">
			<g id="XMLID_141_">
				<rect id="XMLID_171_" x="7" y="13" fill="#295786" width="25" height="3"/>
			</g>
		</g>
		<g id="XMLID_3771_">
			<g id="XMLID_136_">
				<rect id="XMLID_154_" x="7" y="19" fill="#295786" width="25" height="3"/>
			</g>
		</g>
		<g id="XMLID_3770_">
			<g id="XMLID_140_">
				<rect id="XMLID_174_" x="7" y="25" fill="#295786" width="25" height="3"/>
			</g>
		</g>
		<g id="XMLID_3769_">
			<g id="XMLID_142_">
				<rect id="XMLID_178_" x="7" y="31" fill="#295786" width="25" height="3"/>
			</g>
		</g>
	</g>
	<g id="XMLID_3751_">
		<rect id="XMLID_3767_" x="7" y="6" fill="#FFFFFF" width="25" height="3"/>
		<rect id="XMLID_3762_" x="7" y="12" fill="#FFFFFF" width="25" height="3"/>
		<rect id="XMLID_3761_" x="7" y="18" fill="#FFFFFF" width="25" height="3"/>
		<rect id="XMLID_3753_" x="7" y="24" fill="#FFFFFF" width="25" height="3"/>
		<rect id="XMLID_3752_" x="7" y="30" fill="#FFFFFF" width="25" height="3"/>
	</g>
	<rect id="XMLID_3664_" x="17" y="3" fill="#15529B" width="5" height="33"/>
</g>
</svg>
