<?xml version="1.0" encoding="utf-8"?>
<!-- Generator: Adobe Illustrator 24.1.1, SVG Export Plug-In . SVG Version: 6.00 Build 0)  -->
<svg version="1.1" id="Layer_1" xmlns="http://www.w3.org/2000/svg" xmlns:xlink="http://www.w3.org/1999/xlink" x="0px" y="0px"
	 viewBox="0 0 38 38" enable-background="new 0 0 38 38" xml:space="preserve">
<g id="XMLID_3775_">
	<g id="XMLID_4080_">
		<g>
			<g>
				<defs>
					<path id="SVGID_1_" d="M38,33.4c0,2.5-2.1,4.6-4.6,4.6H4.6C2.1,38,0,35.9,0,33.4V4.6C0,2.1,2.1,0,4.6,0h28.8
						C35.9,0,38,2.1,38,4.6V33.4z"/>
				</defs>
				<clipPath id="SVGID_2_">
					<use xlink:href="#SVGID_1_"  overflow="visible"/>
				</clipPath>
				<g id="XMLID_4081_" clip-path="url(#SVGID_2_)">
					<rect id="XMLID_4101_" y="-1" fill="#1F6A99" width="13" height="41"/>
					<rect id="XMLID_4100_" x="13" y="-1" fill="#1C8EBA" width="13" height="41"/>
					<rect id="XMLID_4099_" x="25" y="-1" fill="#16A9D6" width="13" height="41"/>
				</g>
			</g>
		</g>
	</g>
	<g id="XMLID_3804_">
		<g id="XMLID_3810_">
			<g id="XMLID_369_">
				<g id="XMLID_449_">
					<polyline id="XMLID_474_" fill="none" stroke="#165270" stroke-width="2" stroke-miterlimit="10" points="6,25.7 16.1,17.5 
						26.5,23.6 34.3,15.9 					"/>
					<g id="XMLID_468_">
						<circle id="XMLID_473_" fill="#165270" cx="16.1" cy="17" r="2.3"/>
						<g id="XMLID_469_">
							<path id="XMLID_470_" fill="#165270" d="M16.1,15.3c1,0,1.8,0.8,1.8,1.8s-0.8,1.8-1.8,1.8s-1.8-0.8-1.8-1.8
								S15.1,15.3,16.1,15.3 M16.1,14.3c-1.5,0-2.8,1.2-2.8,2.8s1.2,2.8,2.8,2.8s2.8-1.2,2.8-2.8S17.6,14.3,16.1,14.3L16.1,14.3z"/>
						</g>
					</g>
					<g id="XMLID_462_">
						<circle id="XMLID_467_" fill="#165270" cx="32.5" cy="17" r="2.3"/>
						<g id="XMLID_463_">
							<path id="XMLID_464_" fill="#165270" d="M32.5,15.2c1,0,1.8,0.8,1.8,1.8s-0.8,1.8-1.8,1.8S30.7,18,30.7,17
								S31.5,15.2,32.5,15.2 M32.5,14.2c-1.5,0-2.8,1.2-2.8,2.8s1.2,2.8,2.8,2.8s2.8-1.2,2.8-2.8S34,14.2,32.5,14.2L32.5,14.2z"/>
						</g>
					</g>
					<g id="XMLID_456_">
						<circle id="XMLID_461_" fill="#165270" cx="6" cy="25" r="2.3"/>
						<g id="XMLID_457_">
							<path id="XMLID_458_" fill="#165270" d="M6,23.2c1,0,1.8,0.8,1.8,1.8S7,26.7,6,26.7s-1.8-0.8-1.8-1.8S5,23.2,6,23.2 M6,22.2
								c-1.5,0-2.8,1.2-2.8,2.8s1.3,2.7,2.8,2.7s2.8-1.2,2.8-2.8S7.5,22.2,6,22.2L6,22.2z"/>
						</g>
					</g>
					<g id="XMLID_450_">
						<circle id="XMLID_455_" fill="#165270" cx="26.1" cy="22.7" r="2.3"/>
						<g id="XMLID_451_">
							<path id="XMLID_452_" fill="#165270" d="M26.1,20.9c1,0,1.8,0.8,1.8,1.8s-0.8,1.8-1.8,1.8s-1.8-0.8-1.8-1.8
								S25.1,20.9,26.1,20.9 M26.1,19.9c-1.5,0-2.8,1.2-2.8,2.8s1.2,2.8,2.8,2.8s2.8-1.2,2.8-2.8S27.6,19.9,26.1,19.9L26.1,19.9z"/>
						</g>
					</g>
				</g>
			</g>
		</g>
		<g id="XMLID_3809_">
			<polyline id="XMLID_131_" fill="none" stroke="#FFFFFF" stroke-width="3.5" stroke-miterlimit="10" points="6,22.9 16.1,14.7 
				26.1,20.8 32.5,14.9 			"/>
			<polyline id="XMLID_130_" fill="none" stroke="#333D47" stroke-width="2" stroke-miterlimit="10" points="6,22.9 16.1,14.7 
				26.1,20.8 32.5,14.9 			"/>
		</g>
		<g id="XMLID_3808_">
			<circle id="XMLID_163_" fill="#333D47" cx="6" cy="22.9" r="2.1"/>
			<path id="XMLID_160_" fill="#FFFFFF" d="M6,21.1c1,0,1.8,0.8,1.8,1.8S7,24.7,6,24.7s-1.8-0.8-1.8-1.8C4.3,21.9,5,21.1,6,21.1
				 M6,20.4c-1.4,0-2.5,1.1-2.5,2.5s1.1,2.5,2.5,2.5s2.5-1.1,2.5-2.5S7.4,20.4,6,20.4L6,20.4z"/>
		</g>
		<g id="XMLID_3807_">
			<circle id="XMLID_158_" fill="#333D47" cx="16.1" cy="14.7" r="2.1"/>
			<path id="XMLID_155_" fill="#FFFFFF" d="M16.1,13c1,0,1.8,0.8,1.8,1.8s-0.8,1.8-1.8,1.8s-1.8-0.9-1.8-1.9
				C14.3,13.8,15.1,13,16.1,13 M16.1,12.2c-1.4,0-2.5,1.1-2.5,2.5s1.1,2.5,2.5,2.5s2.5-1.1,2.5-2.5S17.4,12.2,16.1,12.2L16.1,12.2z"
				/>
		</g>
		<g id="XMLID_3806_">
			<circle id="XMLID_164_" fill="#333D47" cx="26.1" cy="20.8" r="2.1"/>
			<path id="XMLID_153_" fill="#FFFFFF" d="M26.1,19c1,0,1.8,0.8,1.8,1.8s-0.8,1.8-1.8,1.8s-1.8-0.8-1.8-1.8
				C24.3,19.8,25.1,19,26.1,19 M26.1,18.3c-1.4,0-2.5,1.1-2.5,2.5s1.1,2.5,2.5,2.5s2.5-1.1,2.5-2.5S27.5,18.3,26.1,18.3L26.1,18.3z"
				/>
		</g>
		<g id="XMLID_3805_">
			<circle id="XMLID_168_" fill="#333D47" cx="32.5" cy="14.9" r="2.1"/>
			<path id="XMLID_165_" fill="#FFFFFF" d="M32.5,13.2c1,0,1.8,0.8,1.8,1.8s-0.8,1.7-1.8,1.7s-1.8-0.8-1.8-1.8S31.5,13.2,32.5,13.2
				 M32.5,12.4c-1.4,0-2.5,1.1-2.5,2.5s1.1,2.5,2.5,2.5c1.4,0,2.5-1.1,2.5-2.5S33.9,12.4,32.5,12.4L32.5,12.4z"/>
		</g>
	</g>
</g>
</svg>
