<?xml version="1.0" encoding="utf-8"?>
<!-- Generator: Adobe Illustrator 24.1.1, SVG Export Plug-In . SVG Version: 6.00 Build 0)  -->
<svg version="1.1" id="Layer_1" xmlns="http://www.w3.org/2000/svg" xmlns:xlink="http://www.w3.org/1999/xlink" x="0px" y="0px"
	 viewBox="0 0 38 38" enable-background="new 0 0 38 38" xml:space="preserve">
<g id="white_rect_152_">
	<path id="XMLID_130_" fill="#52B573" d="M38,33.4c0,2.5-2.1,4.6-4.6,4.6H4.6C2.1,38,0,35.9,0,33.4V4.6C0,2.1,2.1,0,4.6,0h28.8
		C35.9,0,38,2.1,38,4.6V33.4z"/>
</g>
<g id="XMLID_4935_">
	<g id="XMLID_223_">
		<g id="XMLID_270_">
			<g id="XMLID_275_">
				<g id="XMLID_277_">
					<path id="XMLID_283_" fill="#47895B" d="M22.7,20.5l-1.1-1c-0.4,0.7-0.8,1.4-1.3,2s-1.2,1.1-1.8,1.5l1.1,1
						c0.7-0.3,1.4-0.8,1.9-1.4C22,21.9,22.4,21.2,22.7,20.5z"/>
					<path id="XMLID_282_" fill="#47895B" d="M21.9,22.9c-0.5,0.6-1.2,1.1-1.8,1.5l9.3,8.5c0.7-0.3,1.4-0.8,2-1.5
						c0.5-0.6,0.9-1.2,1.2-1.9l-9.4-8.6C22.8,21.7,22.4,22.3,21.9,22.9z"/>
					<path id="XMLID_281_" fill="#47895B" d="M34.1,31L33,30c-0.4,0.7-0.8,1.4-1.3,2c-0.5,0.6-1.2,1.1-1.8,1.5l1.1,1
						c0.7-0.3,1.4-0.8,1.9-1.4S33.8,31.7,34.1,31z"/>
					<path id="XMLID_278_" fill="#47895B" d="M6.5,8.8C3.1,12.5,3.4,18.2,7,21.5s9.4,3.1,12.7-0.6s3.1-9.4-0.6-12.7S9.8,5.1,6.5,8.8
						z M17.7,19.1c-2.3,2.5-6.3,2.7-8.8,0.4s-2.7-6.3-0.4-8.8s6.3-2.7,8.8-0.4S20,16.6,17.7,19.1z"/>
				</g>
				
					<rect id="XMLID_276_" x="10" y="12" transform="matrix(0.7071 -0.7071 0.7071 0.7071 -6.8099 13.6311)" fill="#47895B" stroke="#47895B" stroke-width="1" stroke-miterlimit="9.9998" width="6.1" height="6.1"/>
			</g>
			<g id="XMLID_271_">
				<path id="XMLID_272_" fill="#47895B" d="M12.7,16.7c0-0.2,0.2-0.4,0.4-0.4s0.4,0.2,0.4,0.4s-0.1,0.4-0.4,0.4S12.7,17,12.7,16.7z
					 M12.8,16l-0.1-3h0.6l-0.1,3H12.8z"/>
			</g>
		</g>
	</g>
</g>
<g id="XMLID_4685_">
	<g id="XMLID_4687_">
		<path id="XMLID_4934_" fill="#333D47" d="M22.7,19.2l-1.1-1c-0.4,0.7-0.8,1.4-1.3,2s-1.2,1.1-1.8,1.5l1.1,1
			c0.7-0.3,1.4-0.8,1.9-1.4C22,20.6,22.4,19.9,22.7,19.2z"/>
		<path id="XMLID_4933_" fill="#333D47" d="M21.9,21.6c-0.5,0.6-1.2,1.1-1.8,1.5l9.3,8.5c0.7-0.3,1.4-0.8,2-1.5
			c0.5-0.6,0.9-1.2,1.2-1.9l-9.4-8.6C22.8,20.3,22.4,21,21.9,21.6z"/>
		<path id="XMLID_4932_" fill="#333D47" d="M34.1,29.6L33,28.7c-0.4,0.7-0.8,1.4-1.3,2s-1.2,1.1-1.8,1.5l1.1,1
			c0.7-0.3,1.4-0.8,1.9-1.4S33.8,30.4,34.1,29.6z"/>
		<path id="XMLID_4829_" fill="#333D47" d="M6.5,7.5C3.1,11.1,3.4,16.8,7,20.2s9.4,3.1,12.7-0.6s3.1-9.4-0.6-12.7S9.8,3.8,6.5,7.5z
			 M17.7,17.8c-2.3,2.5-6.3,2.7-8.8,0.4s-2.7-6.3-0.4-8.8s6.3-2.7,8.8-0.4S20,15.2,17.7,17.8z"/>
	</g>
	
		<rect id="XMLID_4686_" x="10" y="10.6" transform="matrix(0.7071 -0.7071 0.7071 0.7071 -5.8475 13.2325)" fill="#FFFF00" stroke="#333D47" stroke-width="1" stroke-miterlimit="9.9998" width="6.1" height="6.1"/>
</g>
<path id="XMLID_4682_" fill="#333D47" d="M12.6,16.3c0-0.2,0.2-0.4,0.4-0.4s0.4,0.2,0.4,0.4c0,0.2-0.2,0.4-0.4,0.4
	S12.6,16.5,12.6,16.3z"/>
<polygon id="XMLID_4679_" fill="#333D47" points="12.7,15 12.6,12 13.5,12 13.3,15 "/>
</svg>
