<?xml version="1.0" encoding="utf-8"?>
<!-- Generator: Adobe Illustrator 24.1.1, SVG Export Plug-In . SVG Version: 6.00 Build 0)  -->
<svg version="1.1" id="Layer_1" xmlns="http://www.w3.org/2000/svg" xmlns:xlink="http://www.w3.org/1999/xlink" x="0px" y="0px"
	 viewBox="0 0 38 38" enable-background="new 0 0 38 38" xml:space="preserve">
<g id="white_rect_128_">
	<path id="XMLID_138_" fill="#C14257" d="M38,33.4c0,2.5-2.1,4.6-4.6,4.6H4.6C2.1,38,0,35.9,0,33.4V4.6C0,2.1,2.1,0,4.6,0h28.8
		C35.9,0,38,2.1,38,4.6V33.4z"/>
</g>
<g id="XMLID_1597_">
	<g>
		<g>
			<g>
				<defs>
					<path id="SVGID_1_" d="M38,33.4c0,2.5-2.1,4.6-4.6,4.6H4.6C2.1,38,0,35.9,0,33.4V4.6C0,2.1,2.1,0,4.6,0h28.8
						C35.9,0,38,2.1,38,4.6V33.4z"/>
				</defs>
				<clipPath id="SVGID_2_">
					<use xlink:href="#SVGID_1_"  overflow="visible"/>
				</clipPath>
				
					<path id="XMLID_1607_" clip-path="url(#SVGID_2_)" fill="none" stroke="#9B3248" stroke-width="2" stroke-linecap="round" stroke-miterlimit="10" d="
					M9,25c5-0.5,2.8-1.3,10.5-11.1C29.6,1.2,38,7.2,38,7.2"/>
			</g>
		</g>
	</g>
	<g>
		<g>
			<g>
				<defs>
					<path id="SVGID_3_" d="M38,33.4c0,2.5-2.1,4.6-4.6,4.6H4.6C2.1,38,0,35.9,0,33.4V4.6C0,2.1,2.1,0,4.6,0h28.8
						C35.9,0,38,2.1,38,4.6V33.4z"/>
				</defs>
				<clipPath id="SVGID_4_">
					<use xlink:href="#SVGID_3_"  overflow="visible"/>
				</clipPath>
				
					<path id="XMLID_1606_" clip-path="url(#SVGID_4_)" fill="none" stroke="#9B3248" stroke-width="2" stroke-linecap="round" stroke-miterlimit="10" d="
					M-0.8,2.4c0,0,0.3,3.7,6.2,8.2"/>
			</g>
		</g>
	</g>
	<g>
		<g>
			<g>
				<defs>
					<path id="SVGID_5_" d="M38,33.4c0,2.5-2.1,4.6-4.6,4.6H4.6C2.1,38,0,35.9,0,33.4V4.6C0,2.1,2.1,0,4.6,0h28.8
						C35.9,0,38,2.1,38,4.6V33.4z"/>
				</defs>
				<clipPath id="SVGID_6_">
					<use xlink:href="#SVGID_5_"  overflow="visible"/>
				</clipPath>
				
					<path id="XMLID_1605_" clip-path="url(#SVGID_6_)" fill="none" stroke="#9B3248" stroke-width="2" stroke-linecap="round" stroke-miterlimit="10" d="
					M26.3,6.2c0,0-9,0.5-13.5-7.8"/>
			</g>
		</g>
	</g>
	<g>
		<g>
			<g>
				<defs>
					<path id="SVGID_7_" d="M38,33.4c0,2.5-2.1,4.6-4.6,4.6H4.6C2.1,38,0,35.9,0,33.4V4.6C0,2.1,2.1,0,4.6,0h28.8
						C35.9,0,38,2.1,38,4.6V33.4z"/>
				</defs>
				<clipPath id="SVGID_8_">
					<use xlink:href="#SVGID_7_"  overflow="visible"/>
				</clipPath>
				
					<path id="XMLID_1604_" clip-path="url(#SVGID_8_)" fill="none" stroke="#FFFFFF" stroke-width="2" stroke-linecap="round" stroke-miterlimit="10" d="
					M28.7,4.4c0,0-7.7,2.8-14.5-6.5"/>
			</g>
		</g>
	</g>
	<g>
		<g>
			<g>
				<defs>
					<path id="SVGID_9_" d="M38,33.4c0,2.5-2.1,4.6-4.6,4.6H4.6C2.1,38,0,35.9,0,33.4V4.6C0,2.1,2.1,0,4.6,0h28.8
						C35.9,0,38,2.1,38,4.6V33.4z"/>
				</defs>
				<clipPath id="SVGID_10_">
					<use xlink:href="#SVGID_9_"  overflow="visible"/>
				</clipPath>
				
					<path id="XMLID_1603_" clip-path="url(#SVGID_10_)" fill="none" stroke="#9B3248" stroke-width="2" stroke-linecap="round" stroke-miterlimit="10" d="
					M3,0c2.3,15.8,8.4,39.4,8.4,39.4"/>
			</g>
		</g>
	</g>
	<g>
		<g>
			<g>
				<defs>
					<path id="SVGID_11_" d="M38,33.4c0,2.5-2.1,4.6-4.6,4.6H4.6C2.1,38,0,35.9,0,33.4V4.6C0,2.1,2.1,0,4.6,0h28.8
						C35.9,0,38,2.1,38,4.6V33.4z"/>
				</defs>
				<clipPath id="SVGID_12_">
					<use xlink:href="#SVGID_11_"  overflow="visible"/>
				</clipPath>
				
					<path id="XMLID_1602_" clip-path="url(#SVGID_12_)" fill="none" stroke="#FFFFFF" stroke-width="2" stroke-linecap="round" stroke-miterlimit="10" d="
					M9,23.3c4.4-0.6,6.3-3.8,8.5-7.8C27.3-1.9,37.9,5.2,37.9,5.2"/>
			</g>
		</g>
	</g>
	<g>
		<g>
			<g>
				<defs>
					<path id="SVGID_13_" d="M38,33.4c0,2.5-2.1,4.6-4.6,4.6H4.6C2.1,38,0,35.9,0,33.4V4.6C0,2.1,2.1,0,4.6,0h28.8
						C35.9,0,38,2.1,38,4.6V33.4z"/>
				</defs>
				<clipPath id="SVGID_14_">
					<use xlink:href="#SVGID_13_"  overflow="visible"/>
				</clipPath>
				
					<path id="XMLID_1601_" clip-path="url(#SVGID_14_)" fill="none" stroke="#FFFFFF" stroke-width="2" stroke-linecap="round" stroke-miterlimit="10" d="
					M-1,0.6c0.7,2.8,3.8,7.8,6.2,8.5"/>
			</g>
		</g>
	</g>
	<g>
		<g>
			<g>
				<defs>
					<path id="SVGID_15_" d="M38,33.4c0,2.5-2.1,4.6-4.6,4.6H4.6C2.1,38,0,35.9,0,33.4V4.6C0,2.1,2.1,0,4.6,0h28.8
						C35.9,0,38,2.1,38,4.6V33.4z"/>
				</defs>
				<clipPath id="SVGID_16_">
					<use xlink:href="#SVGID_15_"  overflow="visible"/>
				</clipPath>
				
					<path id="XMLID_1600_" clip-path="url(#SVGID_16_)" fill="none" stroke="#FFFFFF" stroke-width="2" stroke-linecap="round" stroke-miterlimit="10" d="
					M3.3-0.7c0.8,4.3,9,40.1,9,40.1"/>
			</g>
		</g>
	</g>
	<g>
		<g>
			<g>
				<defs>
					<path id="SVGID_17_" d="M38,33.4c0,2.5-2.1,4.6-4.6,4.6H4.6C2.1,38,0,35.9,0,33.4V4.6C0,2.1,2.1,0,4.6,0h28.8
						C35.9,0,38,2.1,38,4.6V33.4z"/>
				</defs>
				<clipPath id="SVGID_18_">
					<use xlink:href="#SVGID_17_"  overflow="visible"/>
				</clipPath>
				
					<path id="XMLID_1599_" clip-path="url(#SVGID_18_)" fill="none" stroke="#9B3248" stroke-width="2" stroke-linecap="round" stroke-miterlimit="10" d="
					M16.8,40c0,0,8.8-5.3,20.5-12.3"/>
			</g>
		</g>
	</g>
	<g>
		<g>
			<g>
				<defs>
					<path id="SVGID_19_" d="M38,33.4c0,2.5-2.1,4.6-4.6,4.6H4.6C2.1,38,0,35.9,0,33.4V4.6C0,2.1,2.1,0,4.6,0h28.8
						C35.9,0,38,2.1,38,4.6V33.4z"/>
				</defs>
				<clipPath id="SVGID_20_">
					<use xlink:href="#SVGID_19_"  overflow="visible"/>
				</clipPath>
				
					<path id="XMLID_1598_" clip-path="url(#SVGID_20_)" fill="none" stroke="#FFFFFF" stroke-width="2" stroke-linecap="round" stroke-miterlimit="10" d="
					M14.3,39.7c0,0,11.6-6.9,24.3-14.3"/>
			</g>
		</g>
	</g>
</g>
<path id="XMLID_136_" fill="#9B3248" d="M19,31c-5.6,0-10.2-4.6-10.2-10.2S13.4,10.7,19,10.7s10.2,4.6,10.2,10.2S24.6,31,19,31z"/>
<g>
	<g id="XMLID_10092_">
		<path id="XMLID_1945_" fill="#333D47" d="M18.2,10.4c-4.4,0-8,3.5-8,8s3.5,8,8,8s8-3.5,8-8S22.6,10.4,18.2,10.4L18.2,10.4z"/>
		<g id="XMLID_1943_">
			<circle fill="#FFFFFF" cx="18.2" cy="18.3" r="9.7"/>
			<path d="M18.2,9.6c4.8,0,8.7,3.9,8.7,8.7S23,27,18.2,27s-8.7-3.9-8.7-8.7S13.4,9.6,18.2,9.6 M18.2,7.6c-5.9,0-10.7,4.8-10.7,10.7
				S12.3,29,18.2,29s10.7-4.8,10.7-10.7S24.1,7.6,18.2,7.6L18.2,7.6z"/>
		</g>
	</g>
	<polyline fill="none" stroke="#000000" stroke-linecap="round" stroke-linejoin="round" stroke-miterlimit="10" points="18.8,11.6 
		18.8,18.3 14.3,18.3 	"/>
	<line fill="none" stroke="#000000" stroke-linecap="round" stroke-miterlimit="10" x1="18.1" y1="24" x2="18.1" y2="25.2"/>
	<line fill="none" stroke="#000000" stroke-linecap="round" stroke-miterlimit="10" x1="18.1" y1="11" x2="18.1" y2="12.3"/>
	<line fill="none" stroke="#000000" stroke-linecap="round" stroke-miterlimit="10" x1="12.3" y1="18.4" x2="11.1" y2="18.4"/>
	<line fill="none" stroke="#000000" stroke-linecap="round" stroke-miterlimit="10" x1="25.3" y1="18.4" x2="24.1" y2="18.4"/>
	<line fill="none" stroke="#000000" stroke-linecap="round" stroke-miterlimit="10" x1="22.6" y1="23.1" x2="22.9" y2="23.5"/>
	<line fill="none" stroke="#000000" stroke-linecap="round" stroke-miterlimit="10" x1="13.3" y1="12.9" x2="13.7" y2="13.3"/>
	<line fill="none" stroke="#000000" stroke-linecap="round" stroke-miterlimit="10" x1="13.5" y1="22.7" x2="13.1" y2="23.1"/>
	<line fill="none" stroke="#000000" stroke-linecap="round" stroke-miterlimit="10" x1="23.6" y1="13.5" x2="23.2" y2="13.9"/>
</g>
</svg>
