<?xml version="1.0" encoding="utf-8"?>
<!-- Generator: Adobe Illustrator 24.1.1, SVG Export Plug-In . SVG Version: 6.00 Build 0)  -->
<svg version="1.1" id="Layer_1" xmlns="http://www.w3.org/2000/svg" xmlns:xlink="http://www.w3.org/1999/xlink" x="0px" y="0px"
	 viewBox="0 0 38 38" enable-background="new 0 0 38 38" xml:space="preserve">
<g id="XMLID_1591_">
	<g id="white_rect_128_">
		<path id="XMLID_138_" fill="#136687" d="M38,33.4c0,2.5-2.1,4.6-4.6,4.6H4.6C2.1,38,0,35.9,0,33.4V4.6C0,2.1,2.1,0,4.6,0h28.8
			C35.9,0,38,2.1,38,4.6V33.4z"/>
	</g>
	<g id="XMLID_1597_">
		<g>
			<g>
				<defs>
					<path id="SVGID_1_" d="M38,33.4c0,2.5-2.1,4.6-4.6,4.6H4.6C2.1,38,0,35.9,0,33.4V4.6C0,2.1,2.1,0,4.6,0h28.8
						C35.9,0,38,2.1,38,4.6V33.4z"/>
				</defs>
				<clipPath id="SVGID_2_">
					<use xlink:href="#SVGID_1_"  overflow="visible"/>
				</clipPath>
				
					<path id="XMLID_1607_" clip-path="url(#SVGID_2_)" fill="none" stroke="#1B5668" stroke-width="2" stroke-linecap="round" stroke-miterlimit="10" d="
					M9,25c5-0.5,2.8-1.3,10.5-11.1C29.6,1.2,38,7.2,38,7.2"/>
			</g>
		</g>
		<g>
			<g>
				<defs>
					<path id="SVGID_3_" d="M38,33.4c0,2.5-2.1,4.6-4.6,4.6H4.6C2.1,38,0,35.9,0,33.4V4.6C0,2.1,2.1,0,4.6,0h28.8
						C35.9,0,38,2.1,38,4.6V33.4z"/>
				</defs>
				<clipPath id="SVGID_4_">
					<use xlink:href="#SVGID_3_"  overflow="visible"/>
				</clipPath>
				
					<path id="XMLID_1606_" clip-path="url(#SVGID_4_)" fill="none" stroke="#1B5668" stroke-width="2" stroke-linecap="round" stroke-miterlimit="10" d="
					M-0.8,2.4c0,0,0.3,3.7,6.2,8.2"/>
			</g>
		</g>
		<g>
			<g>
				<defs>
					<path id="SVGID_5_" d="M38,33.4c0,2.5-2.1,4.6-4.6,4.6H4.6C2.1,38,0,35.9,0,33.4V4.6C0,2.1,2.1,0,4.6,0h28.8
						C35.9,0,38,2.1,38,4.6V33.4z"/>
				</defs>
				<clipPath id="SVGID_6_">
					<use xlink:href="#SVGID_5_"  overflow="visible"/>
				</clipPath>
				
					<path id="XMLID_1605_" clip-path="url(#SVGID_6_)" fill="none" stroke="#1B5668" stroke-width="2" stroke-linecap="round" stroke-miterlimit="10" d="
					M26.3,6.2c0,0-9,0.5-13.5-7.8"/>
			</g>
		</g>
		<g>
			<g>
				<defs>
					<path id="SVGID_7_" d="M38,33.4c0,2.5-2.1,4.6-4.6,4.6H4.6C2.1,38,0,35.9,0,33.4V4.6C0,2.1,2.1,0,4.6,0h28.8
						C35.9,0,38,2.1,38,4.6V33.4z"/>
				</defs>
				<clipPath id="SVGID_8_">
					<use xlink:href="#SVGID_7_"  overflow="visible"/>
				</clipPath>
				
					<path id="XMLID_1604_" clip-path="url(#SVGID_8_)" fill="none" stroke="#FF4719" stroke-width="2" stroke-linecap="round" stroke-miterlimit="10" d="
					M28.7,4.4c0,0-7.7,2.8-14.5-6.5"/>
			</g>
		</g>
		<g>
			<g>
				<defs>
					<path id="SVGID_9_" d="M38,33.4c0,2.5-2.1,4.6-4.6,4.6H4.6C2.1,38,0,35.9,0,33.4V4.6C0,2.1,2.1,0,4.6,0h28.8
						C35.9,0,38,2.1,38,4.6V33.4z"/>
				</defs>
				<clipPath id="SVGID_10_">
					<use xlink:href="#SVGID_9_"  overflow="visible"/>
				</clipPath>
				
					<path id="XMLID_1603_" clip-path="url(#SVGID_10_)" fill="none" stroke="#1B5668" stroke-width="2" stroke-linecap="round" stroke-miterlimit="10" d="
					M3,0c2.3,15.8,8.4,39.4,8.4,39.4"/>
			</g>
		</g>
		<g>
			<g>
				<defs>
					<path id="SVGID_11_" d="M38,33.4c0,2.5-2.1,4.6-4.6,4.6H4.6C2.1,38,0,35.9,0,33.4V4.6C0,2.1,2.1,0,4.6,0h28.8
						C35.9,0,38,2.1,38,4.6V33.4z"/>
				</defs>
				<clipPath id="SVGID_12_">
					<use xlink:href="#SVGID_11_"  overflow="visible"/>
				</clipPath>
				
					<path id="XMLID_1602_" clip-path="url(#SVGID_12_)" fill="none" stroke="#CC1414" stroke-width="2" stroke-linecap="round" stroke-miterlimit="10" d="
					M9,23.3c4.4-0.6,6.3-3.8,8.5-7.8C27.3-1.9,37.9,5.2,37.9,5.2"/>
			</g>
		</g>
		<g>
			<g>
				<defs>
					<path id="SVGID_13_" d="M38,33.4c0,2.5-2.1,4.6-4.6,4.6H4.6C2.1,38,0,35.9,0,33.4V4.6C0,2.1,2.1,0,4.6,0h28.8
						C35.9,0,38,2.1,38,4.6V33.4z"/>
				</defs>
				<clipPath id="SVGID_14_">
					<use xlink:href="#SVGID_13_"  overflow="visible"/>
				</clipPath>
				
					<path id="XMLID_1601_" clip-path="url(#SVGID_14_)" fill="none" stroke="#FFE019" stroke-width="2" stroke-linecap="round" stroke-miterlimit="10" d="
					M-1,0.6c0.7,2.8,3.8,7.8,6.2,8.5"/>
			</g>
		</g>
		<g>
			<g>
				<defs>
					<path id="SVGID_15_" d="M38,33.4c0,2.5-2.1,4.6-4.6,4.6H4.6C2.1,38,0,35.9,0,33.4V4.6C0,2.1,2.1,0,4.6,0h28.8
						C35.9,0,38,2.1,38,4.6V33.4z"/>
				</defs>
				<clipPath id="SVGID_16_">
					<use xlink:href="#SVGID_15_"  overflow="visible"/>
				</clipPath>
				
					<path id="XMLID_1600_" clip-path="url(#SVGID_16_)" fill="none" stroke="#FFA319" stroke-width="2" stroke-linecap="round" stroke-miterlimit="10" d="
					M3.3-0.7c0.8,4.3,9,40.1,9,40.1"/>
			</g>
		</g>
		<g>
			<g>
				<defs>
					<path id="SVGID_17_" d="M38,33.4c0,2.5-2.1,4.6-4.6,4.6H4.6C2.1,38,0,35.9,0,33.4V4.6C0,2.1,2.1,0,4.6,0h28.8
						C35.9,0,38,2.1,38,4.6V33.4z"/>
				</defs>
				<clipPath id="SVGID_18_">
					<use xlink:href="#SVGID_17_"  overflow="visible"/>
				</clipPath>
				
					<path id="XMLID_1599_" clip-path="url(#SVGID_18_)" fill="none" stroke="#1B5668" stroke-width="2" stroke-linecap="round" stroke-miterlimit="10" d="
					M16.8,40c0,0,8.8-5.3,20.5-12.3"/>
			</g>
		</g>
		<g>
			<g>
				<defs>
					<path id="SVGID_19_" d="M38,33.4c0,2.5-2.1,4.6-4.6,4.6H4.6C2.1,38,0,35.9,0,33.4V4.6C0,2.1,2.1,0,4.6,0h28.8
						C35.9,0,38,2.1,38,4.6V33.4z"/>
				</defs>
				<clipPath id="SVGID_20_">
					<use xlink:href="#SVGID_19_"  overflow="visible"/>
				</clipPath>
				
					<path id="XMLID_1598_" clip-path="url(#SVGID_20_)" fill="none" stroke="#32FA32" stroke-width="2" stroke-linecap="round" stroke-miterlimit="10" d="
					M14.3,39.7c0,0,11.6-6.9,24.3-14.3"/>
			</g>
		</g>
	</g>
	<g id="XMLID_1592_">
		<g id="XMLID_1596_">
			<path id="XMLID_136_" fill="#1B5668" d="M18.5,30.6c-5.2,0-9.5-4.3-9.5-9.5s4.3-9.5,9.5-9.5s9.5,4.3,9.5,9.5S23.7,30.6,18.5,30.6
				z"/>
			<path id="XMLID_133_" fill="#1B5668" d="M18.5,12.2c5,0,9,4,9,9s-4,9-9,9s-9-4-9-9S13.5,12.2,18.5,12.2 M18.5,11.2
				c-5.5,0-10,4.5-10,10s4.5,10,10,10s10-4.5,10-10S24,11.2,18.5,11.2L18.5,11.2z"/>
		</g>
		<g id="XMLID_1595_">
			<path id="XMLID_149_" fill="#FFFFFF" d="M18.5,27.3c-4.7,0-8.5-3.8-8.5-8.5s3.8-8.5,8.5-8.5s8.5,3.8,8.5,8.5S23.2,27.3,18.5,27.3
				z"/>
			<path id="XMLID_146_" fill="#333D47" d="M18.5,10.8c4.4,0,8,3.6,8,8s-3.6,8-8,8s-8-3.6-8-8S14.1,10.8,18.5,10.8 M18.5,9.8
				c-5,0-9,4-9,9s4,9,9,9s9-4,9-9S23.5,9.8,18.5,9.8L18.5,9.8z"/>
			<path id="XMLID_141_" fill="#FFFFFF" d="M18.5,9.8c5,0,9,4,9,9s-4,9-9,9s-9-4-9-9S13.5,9.8,18.5,9.8 M18.5,8.8
				c-5.5,0-10,4.5-10,10s4.5,10,10,10s10-4.5,10-10S24,8.8,18.5,8.8L18.5,8.8z"/>
		</g>
		<polygon id="XMLID_1594_" fill="#A3C2C6" points="16,15.2 24,18.8 24,19.6 16,24.1 		"/>
		<polygon id="XMLID_1593_" fill="#333D47" points="16,14.4 23.7,18.8 16,23.2 		"/>
	</g>
</g>
</svg>
