<?xml version="1.0" encoding="utf-8"?>
<!-- Generator: Adobe Illustrator 24.1.1, SVG Export Plug-In . SVG Version: 6.00 Build 0)  -->
<svg version="1.1" id="Layer_1" xmlns="http://www.w3.org/2000/svg" xmlns:xlink="http://www.w3.org/1999/xlink" x="0px" y="0px"
	 viewBox="0 0 38 38" enable-background="new 0 0 38 38" xml:space="preserve">
<g id="white_rect_1_">
	<path id="XMLID_134_" fill="#FFFFFF" d="M38,33.4c0,2.5-2.1,4.6-4.6,4.6H4.6C2.1,38,0,35.9,0,33.4V4.6C0,2.1,2.1,0,4.6,0h28.8
		C35.9,0,38,2.1,38,4.6V33.4z"/>
</g>
<g id="XMLID_1669_">
	<g id="XMLID_3562_">
		<rect id="XMLID_3566_" x="3" y="3" fill="#3646A3" width="8" height="8"/>
		<rect id="XMLID_3565_" x="15" y="3" fill="#3646A3" width="8" height="8"/>
		<rect id="XMLID_3564_" x="27" y="3" fill="#A73ECE" width="8" height="8"/>
	</g>
	<g id="XMLID_3515_">
		<rect id="XMLID_3532_" x="3" y="15" fill="#614BBF" width="8" height="8"/>
		<rect id="XMLID_3523_" x="15" y="15" fill="#A73ECE" width="8" height="8"/>
		<rect id="XMLID_3520_" x="27" y="15" fill="#D04BDB" width="8" height="8"/>
	</g>
	<g id="XMLID_3459_">
		<rect id="XMLID_3505_" x="3" y="26" fill="#614BBF" width="8" height="9"/>
		<rect id="XMLID_3504_" x="15" y="26" fill="#D04BDB" width="8" height="9"/>
		<rect id="XMLID_3500_" x="27" y="26" fill="#DB40A3" width="8" height="9"/>
	</g>
</g>
<g id="XMLID_1611_">
	<g id="XMLID_1612_">
		<path id="XMLID_163_" fill="#333D47" d="M16.7,31.3v-2.6c-1.5-0.3-2.8-0.9-3.8-1.9c-1.1-1.1-1.8-2.6-2.1-4.5l-0.1-0.5l4.6-0.5
			l0.1,0.4c0.1,0.7,0.4,1.2,0.7,1.7c0.2,0.2,0.3,0.4,0.5,0.5v-4.5c-1.7-0.6-3.1-1.4-3.9-2.4c-0.9-1.1-1.4-2.5-1.4-4.2
			s0.5-3.1,1.6-4.2c1-1,2.2-1.7,3.7-1.9V5.3h3v1.5C21,7,22.1,7.6,23,8.4c1,0.9,1.6,2.1,1.8,3.6l0.1,0.5l-4.5,0.6l-0.1-0.5
			c-0.1-0.6-0.3-1.1-0.7-1.4v4.2c2.2,0.6,3.6,1.4,4.5,2.4c0.9,1.1,1.3,2.4,1.3,4c0,1.8-0.6,3.3-1.7,4.6c-1,1.1-2.4,1.9-4.1,2.2v2.7
			C19.6,31.3,16.7,31.3,16.7,31.3z M19.7,24.5c0.3-0.1,0.6-0.3,0.8-0.6c0.4-0.4,0.5-0.9,0.5-1.5c0-0.5-0.1-0.9-0.4-1.3
			c-0.2-0.3-0.5-0.5-0.9-0.6V24.5z M16.7,11.1c-0.2,0.1-0.3,0.3-0.4,0.4c-0.3,0.4-0.4,0.8-0.4,1.2s0.1,0.7,0.4,1.1
			c0.1,0.2,0.3,0.3,0.4,0.5V11.1z"/>
		<path id="XMLID_157_" fill="#FFFFFF" d="M19.2,5.8v1.4c1.5,0.2,2.7,0.7,3.5,1.5c0.9,0.8,1.4,1.9,1.7,3.3l-3.5,0.5
			c-0.2-1.1-0.8-1.8-1.7-2.2v5.5c2.2,0.6,3.8,1.4,4.6,2.4c0.8,1,1.2,2.2,1.2,3.7c0,1.7-0.5,3.1-1.5,4.3s-2.4,1.9-4.3,2.1v2.6h-2
			v-2.5c-1.6-0.2-2.9-0.8-3.9-1.8s-1.6-2.4-1.9-4.3l3.6-0.4c0.1,0.7,0.4,1.4,0.8,1.9s0.9,0.9,1.4,1.2v-5.9c-1.8-0.5-3.2-1.3-4-2.4
			c-0.9-1.1-1.3-2.3-1.3-3.8s0.5-2.8,1.4-3.8c1-1,2.2-1.6,3.8-1.8V5.8H19.2 M17.2,15.1v-4.8c-0.5,0.2-1,0.5-1.3,1
			c-0.3,0.4-0.5,0.9-0.5,1.5c0,0.5,0.1,1,0.4,1.4C16.1,14.5,16.6,14.9,17.2,15.1 M19.2,25.1c0.7-0.1,1.3-0.5,1.7-1
			c0.4-0.5,0.7-1.1,0.7-1.8c0-0.6-0.2-1.2-0.6-1.6c-0.4-0.5-1-0.8-1.8-1L19.2,25.1 M20.2,4.8h-1h-2h-1v1v0.5c-1.4,0.3-2.6,1-3.6,2
			c-1.1,1.2-1.7,2.7-1.7,4.5c0,1.7,0.5,3.2,1.5,4.5c0.9,1.1,2.1,1.9,3.8,2.5v2.6c-0.1-0.2-0.2-0.5-0.2-0.7l-0.2-0.9l-0.9,0.1
			l-3.6,0.4l-1,0.1l0.2,1c0.3,2,1.1,3.7,2.2,4.8c1,1,2.2,1.6,3.6,1.9v1.7v1h1h2h1v-1V29c1.7-0.4,3-1.2,4-2.3c1.2-1.3,1.8-3,1.8-4.9
			c0-1.7-0.5-3.2-1.5-4.4c-0.9-1-2.3-1.8-4.3-2.5v-1.2l0.8-0.1l3.5-0.5l1-0.1l-0.2-1c-0.3-1.6-0.9-2.9-2-3.9
			c-0.8-0.8-1.9-1.4-3.2-1.6V5.8L20.2,4.8L20.2,4.8z M20.2,23.5v-2.1l0,0c0.2,0.3,0.3,0.6,0.3,1C20.6,22.8,20.5,23.1,20.2,23.5
			L20.2,23.5z"/>
	</g>
</g>
</svg>
